<?xml version="1.0" encoding="utf-8"?>
<!-- Generator: Adobe Illustrator 22.1.0, SVG Export Plug-In . SVG Version: 6.00 Build 0)  -->
<svg version="1.0" id="Layer_1" xmlns="http://www.w3.org/2000/svg" xmlns:xlink="http://www.w3.org/1999/xlink" x="0px" y="0px"
	 viewBox="0 0 512 512" style="enable-background:new 0 0 512 512;" xml:space="preserve">
<style type="text/css">
	.st0{fill:#231F20;}
</style>
<g>
	<path class="st0" d="M278,125.7c0,0-4.4-18.1,21.4-31.7C299.4,94,297.2,118.9,278,125.7z"/>
	<path class="st0" d="M266.7,120.1c0,0-18.3-0.6-23.9-29.8C242.8,90.3,265.7,99.3,266.7,120.1z"/>
	<path class="st0" d="M265.3,131.8c0,0-7,17.2-35.7,12.4C229.6,144.1,245.9,125.5,265.3,131.8z"/>
	<path class="st0" d="M102.4,332.6c-10.2,0.1-23.3-7.1-25.6-6.8c-3.7,0.6-3.7,3.5-5.1,6.3h-2.5c0.4-6.3,0.7-9.9,0.9-16.2
		c0.1-6.2,0.1-9.8,0-16l2.4,0.2l0.7,5.3c1.8,12.7,13.9,25.3,28.4,24.8c11.9-0.6,22.3-6.8,21.9-20.6c-0.5-13.1-11.1-15.9-21.7-19.5
		l-10.3-3.5c-10.9-3.7-19.6-11-19.7-22.7c-0.1-15.4,12.4-23.5,25.9-23.5c13.3-0.1,17.9,6.5,24.5,5.7c2.6-0.2,2.9-3.2,3.8-5.5
		l2.1,0.6c-0.8,5.2-1,8.3-1.1,13.5c0,5.8,0.2,9.2,0.9,15h-2.4l-1.5-7.1c-2.4-11.6-14.2-20.6-26.1-20.1c-9.8,0.3-19.2,6.5-19.4,16.5
		c-0.2,10.4,9.9,14.5,19.6,17.4l9.9,3c12.8,3.9,23.2,10.1,23.4,26C131.5,325.1,114,332.6,102.4,332.6z"/>
	<path class="st0" d="M195,298.7c0,14.9-4.8,29.4-19.1,28.9c-12.9-0.5-19-8.2-19.6-27.7c-0.4-16.8,3.8-30.5,19.8-30.3
		C190.7,269.9,194.9,285.2,195,298.7z M204.7,299.2c0.1-16.2-7.6-32.3-25.3-32.6c-10.1-0.1-18.8,4.4-22.2,14.1l-0.9,2.5v-12.3
		c0-1.6,0.3-3.9-0.4-4c-2.2-0.1-4,0.9-6.5,1.1c-8.1,0.6-7.8,0.7-12.8,0.6l0.1,2h2.5c2.5,0,4.8,0.4,6.3,1.2c2.1,1.3,2.4,6.2,2.4,10.2
		v63c0,2.6-0.8,6.1-1.3,6.5c-2.6,1.9-4,2.1-6.6,2.1h-3.4v2c6.2-0.3,9.9-0.6,16.1-0.6c6.2-0.1,9.8,0,16,0.3l0.1-1.9h-2.4
		c-3.1,0-5.9-0.1-7.7-2c-2.2-2.2-2-5.2-2-8.7V316l2.1,4.1c3.6,7.1,12,10.9,20,10.9C196.5,331.1,204.6,315.1,204.7,299.2z"/>
	<path class="st0" d="M258.2,283.9c-3.3,0-5.8-2.4-5.9-6c0-4,2.9-4,2.6-5.8c-0.1-1.5-3.5-2.6-5.8-2.4c-10.6,1-18.9,16.1-18.9,29.9
		v20c0,2.9,1.2,5.7,3.4,6.7c1.9,1,4.4,1,7.3,1.1l4.2,0.3v2c-7.4-0.3-11.8-0.4-19.2-0.4c-6.7,0-10.5,0.2-17.1,0.7v-2.3l5.1-0.1
		c2.5-0.1,4.8-0.8,6.2-2.2c1.7-1.9,1.5-3.9,1.5-6.5v-42.4c0-1.7-0.4-2.9-1.6-4.2c-1.5-1.7-3.4-1.8-5.6-1.9l-4.4-0.2v-1.7
		c4.2,0,6.6-0.1,10.8-0.7c3.3-0.3,7.8-1.7,8.5-1.5c0.7,0.2,0.6,1.2,0.6,1.9V290l2.2-5.5c3.9-10,9.7-17.4,20.6-18
		c5.2-0.2,11,2.2,11.4,10.1C264,280.3,261.6,283.9,258.2,283.9z"/>
	<path class="st0" d="M317.1,299.8c-0.2,14.2-2.6,30.5-19.6,30.7c-14.4,0.2-20.3-15.3-20.3-31.8c0-15.2,4-30.7,20.4-30.7
		C313.2,268,317.2,285.3,317.1,299.8z M327.2,299.8c-0.1-18-12.7-33.4-29.7-33.5c-17.8-0.1-30.3,14-30.3,32.2
		c0,18.3,13.1,33.6,30.4,33.5C314.3,332,327.2,318.5,327.2,299.8z"/>
	<path class="st0" d="M388.9,329.6c-3.1,0.3-4.8,0.6-7.7,1.1c-0.4-3.1-0.7-4.9-0.8-8.1c-0.1-3.8-0.1-5.2,0-8.4l-3,4.7
		c-4.9,7.8-10.1,11.8-20.1,12.2c-11.4,0.4-16.5-8.4-16.5-17.9v-33.9c0-2.7-0.1-4.7-1.8-6.5c-1.9-2-4-2.2-6.6-2.2l-3.5,0.1v-2
		c4,0,6.4-0.1,10.2-0.5c3.6-0.3,6.7-1.9,9.2-1.2c0.9,0.1,0.8,1.9,0.8,3.1v43.5c0,7.3,4.3,14.4,12.5,14c9.3-0.5,18.3-10.6,18.3-21.8
		v-23.6c0-4.1-0.1-8.4-2.2-10.1c-1.7-1.4-3.1-1.6-5.1-1.6h-5v-2c3.7-0.1,5.9-0.2,9.7-0.6c3.8-0.3,4.9-0.9,10-1.3
		c1.2,0,0.7,2,0.7,3.4V315c0,3.7,0.2,7.8,1.6,9.3c1.4,1.5,2.5,2.5,4.5,2.8l2.6,0.5v1.7C393.9,329.3,392,329.3,388.9,329.6z"/>
	<path class="st0" d="M441.4,317.2c-2.4,7.8-7.7,13.6-15.6,13.7c-9.4,0.1-13.8-8.7-13.8-17.3v-43.1l-12-0.1l-0.1-1.6
		c4.2-0.8,10.1-3.4,12.8-6.4c2.9-3.1,5.5-7.2,6.3-15.6h1.7v21.5h17.9v2h-17.8v44.2c0,5.3,2.9,10.5,8.6,10.6
		c5.2,0.1,8.6-3.8,10.5-8.8l1.5-4.1l1.5,0.4L441.4,317.2z"/>
	<path class="st0" d="M155.3,247.6c-1,3.2-3.2,5.7-6.5,5.7c-3.9,0.1-5.7-3.6-5.7-7.2v-17.9l-5,0l0-0.7c1.7-0.3,4.2-1.4,5.3-2.7
		c1.2-1.3,2.3-3,2.6-6.5h0.7v8.9h7.5v0.8h-7.4v18.4c0,2.2,1.2,4.4,3.6,4.4c2.2,0,3.6-1.6,4.4-3.7l0.6-1.7l0.6,0.2L155.3,247.6z"/>
	<path class="st0" d="M179.5,252.7c-2.2,0-3.5,0-5.8,0.1V252l1.5-0.1c0.5,0,1.4-0.2,1.8-0.6c0.8-0.8,0.6-2,0.6-3.3v-11.9
		c0-3.7-1.4-8.1-5.5-8c-5.2,0.1-7.5,5.5-7.5,10.5v7.1c0,2.2-0.1,4.3,0.7,5.3c0.5,0.7,1.4,0.7,2.2,0.8l1.3,0.1l0,0.8
		c-2.3-0.2-3.7-0.2-6-0.2c-2.2,0-3.5,0-5.7,0.2l0-0.8l1.8-0.1c1-0.1,1.6-0.4,1.9-1c0.5-0.9,0.5-3.1,0.5-5.2v-25.1
		c0-0.9,0-1.6-0.5-2.3c-0.5-0.7-1.1-1-2-1.1l-1.4-0.1v-0.6c1.9,0,3-0.1,4.9-0.5c0.9-0.1,1.5-0.6,2.2-0.6c0.3,0,0.3,0.7,0.3,1.3
		l0,17.1l0.8-1.8c1.6-3.7,4.5-5.6,8.4-5.6c4.6,0,7.2,4.1,7.2,8.5V248c0,1.4,0,2.5,0.7,3.3c0.5,0.6,1.2,0.7,1.9,0.8l1.6,0.1v0.8
		C183.1,252.8,181.7,252.7,179.5,252.7z"/>
	<path class="st0" d="M206.1,238.1h-15.3c0-6.9,3.3-10.7,7.7-10.7c6.2,0,7.2,5.7,7.5,9L206.1,238.1z M209.9,244.5l-0.8-0.3
		c-1.5,6.6-6.6,8.2-9.5,8c-5.3-0.2-9.1-4.7-8.8-13.2h19.2c0.2-6.6-3.9-12.4-11.5-12.4c-7.5,0-11.8,5.9-11.8,13.4
		c0,6.9,3.9,13.1,11.4,13.5C203.6,253.7,208.4,251.6,209.9,244.5z"/>
	<path class="st0" d="M206.6,346.9c-1.6,0-3-1.3-3.1-3c-0.1-1.5,0.6-2.7,2-3.2c-1.2-1-2.1-1.4-3.6-1.5c-3.1-0.1-6.1,2.3-6.1,5.5
		v10.3h9.2v1.2H196v30.8c0,1.8,0.3,3,1.4,3.8c1.2,1.1,3.2,1.1,5.2,1.2l3,0.1v1.2h-23.2v-1.2l3.3-0.1c1.5-0.1,3-0.6,3.9-1.3
		c1.2-1,1.3-2,1.3-3.7v-30.6h-8.8v-1.3h8.7v-6.7c0-6,5-10.3,11.5-10.2c3.4,0,7.3,1.4,7.3,5.1C209.6,345.4,208.3,346.9,206.6,346.9z"
		/>
	<path class="st0" d="M246.2,393.3c-1.9,0.2-3,0.3-4.8,0.7c-0.3-2-0.4-3.1-0.5-5.1c-0.1-2.4-0.1-3.2,0-5.3l-1.9,3
		c-3.1,4.9-6.3,7.4-12.6,7.6c-7.1,0.3-10.3-5.3-10.3-11.2v-21.2c0-1.7-0.1-2.9-1.1-4.1c-1.2-1.3-2.5-1.4-4.1-1.4l-2.2,0.1v-1.3
		c2.5,0,4-0.1,6.4-0.3c2.3-0.2,4.2-1.2,5.8-0.8c0.5,0.1,0.5,1.2,0.5,2v27.2c0,4.6,2.7,9,7.8,8.7c5.8-0.3,11.4-6.6,11.4-13.6v-14.8
		c0-2.5-0.1-5.3-1.4-6.3c-1-0.8-1.9-1-3.2-1H233v-1.3c2.3-0.1,3.7-0.1,6.1-0.3c2.4-0.2,3.1-0.6,6.3-0.8c0.8,0,0.4,1.3,0.4,2.1v28.2
		c0,2.3,0.1,4.8,1,5.8c0.9,0.9,1.6,1.5,2.8,1.8l1.7,0.3v1.1C249.2,393.1,248.1,393.1,246.2,393.3z"/>
	<path class="st0" d="M298.5,393.6c-3.4-0.3-5.3-0.3-8.7-0.3c-3.5,0-5.6,0.1-9.1,0.3v-1.5l1.9-0.1c1.1,0,1.9-0.1,2.8-0.8
		c1.3-1,1.2-2.5,1.2-4.2v-19.5c0-8.9-2.1-11.6-7.3-11.7c-6.6-0.1-12.2,7.5-12.3,15.1l-0.1,15c0,2,0.2,4.1,1.4,5.1
		c1,0.8,1.9,1.1,3.1,1.2l2.3,0.1v1.4c-3.7-0.2-5.9-0.3-9.6-0.3c-3.7,0-5.8,0-9.6,0.2v-1.4l2.9-0.1c1-0.1,1.9,0,2.7-0.7
		c1.2-0.9,1.4-2.2,1.4-3.7v-26.4c0-1.4-0.1-2.5-1.1-3.5c-1-1.1-2.3-1.3-3.9-1.3l-2.2-0.2v-1.1c2.1-0.1,3.4-0.1,5.5-0.3
		c2.5-0.1,5-0.8,6.4-0.7c0.8,0.1,0.6,1.2,0.6,2v9.5l0.8-2.2c1.6-4,5.8-9.2,11.5-9.8c6.5-0.7,12.9,3.2,12.9,11.9l0.1,20.1
		c0,1.8-0.3,3.4,1,4.8c0.8,0.7,1.4,1.1,2.5,1.2l2.8,0.4L298.5,393.6z"/>
	<path class="st0" d="M330.6,373.6c0.3,9.6-2.1,19-12.1,18.8c-9.2-0.1-12.1-9.6-12.1-18.1c0-9.3,3.1-18.6,12.1-18.3
		C326.5,356.2,330.2,361.9,330.6,373.6z M340.9,391.8c-1.5,0.4-2.7,0.1-3.9-0.9c-1.6-1.1-1.5-3.6-1.5-6v-44c0-1.3,0.2-3.3-0.3-3.3
		c-2.5,0-4,0.9-6.6,1.2c-2.1,0.2-3.4,0.3-5.5,0.3v1.2l1.2-0.1c1.5,0,2.3,0.3,3.8,0.8c0.4,0.2,1.8,1.2,1.8,2.3v19.3l-0.9-1.5
		c-2.8-4.7-6.3-6.8-12-6.9c-11.1-0.1-16.5,9.7-16.6,19.9c-0.1,10,4.7,20.4,15.8,20.3c6.3,0,11.5-2.8,13.9-8.8l0.6-1.5v9.9
		c1.6-0.2,2.5-0.3,4.2-0.4c2.3-0.3,3.6-0.4,5.8-0.5L340.9,391.8z"/>
	<path class="st0" d="M271.3,129.8c0,0,30.4,37.5,1.1,65.2c-7.8,7.4-34.2,27,7.6,68c0,0-52.6-38.3-13.9-71
		C297.3,165.5,271.2,132.9,271.3,129.8z"/>
	<path class="st0" d="M202.8,197.7c0,0,119.2-24.1,199.1,41.5C401.9,239.2,311.5,185.7,202.8,197.7z"/>
</g>
<path class="st0" d="M256,486c-61.4,0-119.2-23.9-162.6-67.4C49.9,375.2,26,317.4,26,256S49.9,136.8,93.4,93.4
	C136.8,49.9,194.6,26,256,26s119.2,23.9,162.6,67.4C462.1,136.8,486,194.6,486,256s-23.9,119.2-67.4,162.6
	C375.2,462.1,317.4,486,256,486z M256,36.6C135,36.6,36.6,135,36.6,256c0,121,98.4,219.4,219.4,219.4S475.4,377,475.4,256
	C475.4,135,377,36.6,256,36.6z"/>
</svg>
