<?xml version="1.0" encoding="utf-8"?>
<!-- Generator: Adobe Illustrator 22.1.0, SVG Export Plug-In . SVG Version: 6.00 Build 0)  -->
<svg version="1.0" id="Layer_1" xmlns="http://www.w3.org/2000/svg" xmlns:xlink="http://www.w3.org/1999/xlink" x="0px" y="0px"
	 viewBox="0 0 612 612" style="enable-background:new 0 0 612 612;" xml:space="preserve">
<style type="text/css">
	.st0{clip-path:url(#SVGID_2_);}
	.st1{fill:#FFFFFF;}
</style>
<g>
	<g>
		<defs>
			<rect id="SVGID_1_" width="612" height="612"/>
		</defs>
		<clipPath id="SVGID_2_">
			<use xlink:href="#SVGID_1_"  style="overflow:visible;"/>
		</clipPath>
		<g class="st0">
			<path class="st1" d="M394.6,252.2c0,0-29.1-119.2,140.9-208.6C535.5,43.6,520.9,207.5,394.6,252.2z"/>
			<path class="st1" d="M320.9,215.1c0,0-120.1-4.2-157.3-196C163.6,19.1,313.7,78.6,320.9,215.1z"/>
			<path class="st1" d="M311.5,292.2c0,0-46.3,113.4-235,81.2C76.5,373.4,184.1,250.9,311.5,292.2z"/>
			<path class="st1" d="M350.6,278.9c0,0,199.7,246.3,7,428.8c-51.2,48.5-225.1,177.5,50,447c0,0-346-251.5-91.6-466.6
				C521.8,514.1,350.2,299.6,350.6,278.9z"/>
		</g>
	</g>
	<path class="st1" d="M509,6c25.5,0,49.6,10,67.8,28.2S605,76.5,605,102v408c0,25.5-10,49.6-28.2,67.8S534.5,606,509,606H101
		c-25.5,0-49.6-10-67.8-28.2S5,535.5,5,510V102c0-25.5,10-49.6,28.2-67.8S75.5,6,101,6H509 M509,0H101C44.9,0-1,45.9-1,102v408
		c0,56.1,45.9,102,102,102h408c56.1,0,102-45.9,102-102V102C611,45.9,565.1,0,509,0z"/>
</g>
</svg>
