<?xml version="1.0" encoding="utf-8"?>
<!-- Generator: Adobe Illustrator 22.1.0, SVG Export Plug-In . SVG Version: 6.00 Build 0)  -->
<svg version="1.0" id="Layer_1" xmlns="http://www.w3.org/2000/svg" xmlns:xlink="http://www.w3.org/1999/xlink" x="0px" y="0px"
	 viewBox="0 0 612 612" style="enable-background:new 0 0 612 612;" xml:space="preserve">
<style type="text/css">
	.st0{fill:#FFFFFF;}
</style>
<path class="st0" d="M509,0H101C44.9,0-1,45.9-1,102v408c0,56.1,45.9,102,102,102h281.5c93.9-155-32.2-315.3-31.9-333.1
	c0,0,138.3,170.6,73.6,333.1H509c56.1,0,102-45.9,102-102V102C611,45.9,565.1,0,509,0z M76.5,373.4c0,0,107.6-122.5,235-81.2
	C311.5,292.2,265.2,405.6,76.5,373.4z M163.6,19.1c0,0,150.1,59.5,157.3,196C320.9,215.1,200.8,210.9,163.6,19.1z M394.6,252.2
	c0,0-29.1-119.2,140.9-208.6C535.5,43.6,520.9,207.5,394.6,252.2z"/>
</svg>
