<?xml version="1.0" encoding="utf-8"?>
<!-- Generator: Adobe Illustrator 22.1.0, SVG Export Plug-In . SVG Version: 6.00 Build 0)  -->
<svg version="1.1" id="Layer_1" xmlns="http://www.w3.org/2000/svg" xmlns:xlink="http://www.w3.org/1999/xlink" x="0px" y="0px"
	 viewBox="0 0 4352 512" style="enable-background:new 0 0 4352 512;" xml:space="preserve">
<style type="text/css">
	.st0{clip-path:url(#SVGID_2_);}
	.st1{fill:#FFFFFF;stroke:#FFFFFF;stroke-width:12;stroke-miterlimit:10;}
	.st2{clip-path:url(#SVGID_4_);fill:none;}
	.st3{fill:#FFFFFF;}
</style>
<title>Artboard 1</title>
<g>
	<g>
		<defs>
			<rect id="SVGID_1_" width="512" height="512"/>
		</defs>
		<clipPath id="SVGID_2_">
			<use xlink:href="#SVGID_1_"  style="overflow:visible;"/>
		</clipPath>
		<g class="st0">
			<path class="st1" d="M332.4,211.6c0,0-25.3-102.5,121-179.4C453.4,32.2,440.8,173.1,332.4,211.6z"/>
			<path class="st1" d="M268.8,179.6c0,0-103.4-3.6-135.4-168.6C133.4,11,262.5,62.2,268.8,179.6z"/>
			<path class="st1" d="M260.7,246c0,0-39.9,97.5-202.2,69.9C58.5,315.8,151.1,210.4,260.7,246z"/>
			<path class="st1" d="M294.3,234.5c0,0,171.8,211.9,6.1,368.8c-44.1,41.7-193.7,152.7,43,384.6c0,0-297.7-216.4-78.8-401.6
				C441.6,436.9,293.9,252.3,294.3,234.5z"/>
		</g>
	</g>
	<g>
		<defs>
			<rect id="SVGID_3_" width="512" height="512"/>
		</defs>
		<clipPath id="SVGID_4_">
			<use xlink:href="#SVGID_3_"  style="overflow:visible;"/>
		</clipPath>
		<rect class="st2" width="512" height="512"/>
	</g>
</g>
<g>
	<path class="st3" d="M795.7,390.2h-70.2V117.4h-89.9V59h250.1v58.5h-89.9V390.2z"/>
	<path class="st3" d="M1153.4,390.2h-69.1V242.3c0-36.6-13.6-54.8-40.8-54.8c-19.3,0-33.3,6.6-41.9,19.7s-12.9,34.4-12.9,63.9v119.2
		h-69.1V37.7h69.1v71.8c0,5.6-0.5,18.7-1.6,39.4l-1.6,20.4h3.6c15.4-24.8,39.9-37.2,73.4-37.2c29.8,0,52.3,8,67.7,24
		c15.4,16,23.1,39,23.1,68.9V390.2z"/>
	<path class="st3" d="M1327.6,394.7c-40.8,0-72.7-11.3-95.6-33.8c-23-22.5-34.4-54.4-34.4-95.6c0-42.4,10.6-75.3,31.8-98.4
		c21.2-23.2,50.6-34.8,88-34.8c35.8,0,63.7,10.2,83.6,30.6s29.9,48.6,29.9,84.5v33.5h-163.4c0.8,19.6,6.6,35,17.4,46
		c10.9,11,26.1,16.5,45.8,16.5c15.3,0,29.7-1.6,43.3-4.8s27.8-8.2,42.6-15.2v53.5c-12.1,6-25,10.5-38.7,13.5
		C1364.2,393.3,1347.4,394.7,1327.6,394.7z M1317.9,181.3c-14.7,0-26.1,4.6-34.4,13.9c-8.3,9.3-13.1,22.5-14.3,39.5h97
		c-0.3-17.1-4.8-30.2-13.4-39.5S1332.5,181.3,1317.9,181.3z"/>
	<path class="st3" d="M1785.4,298.2c0,29.9-10.8,53.5-32.3,70.7s-51.5,25.8-89.8,25.8c-35.3,0-66.6-6.6-93.8-19.9v-65.3
		c22.4,10,41.3,17,56.8,21.1c15.5,4.1,29.6,6.1,42.5,6.1c15.4,0,27.2-2.9,35.5-8.8c8.2-5.9,12.3-14.6,12.3-26.3
		c0-6.5-1.8-12.3-5.4-17.3c-3.6-5.1-8.9-9.9-16-14.6c-7-4.7-21.3-12.2-42.9-22.4c-20.2-9.5-35.4-18.7-45.5-27.4
		c-10.1-8.8-18.2-19-24.2-30.6c-6-11.6-9.1-25.2-9.1-40.8c0-29.3,9.9-52.3,29.8-69.1c19.9-16.8,47.3-25.1,82.4-25.1
		c17.2,0,33.6,2,49.3,6.1s32,9.8,49.1,17.2l-22.7,54.6c-17.7-7.3-32.3-12.3-43.8-15.2c-11.6-2.9-22.9-4.3-34.1-4.3
		c-13.3,0-23.5,3.1-30.6,9.3c-7.1,6.2-10.6,14.3-10.6,24.2c0,6.2,1.4,11.6,4.3,16.2c2.9,4.6,7.4,9.1,13.7,13.4
		c6.3,4.3,21.1,12,44.5,23.2c31,14.8,52.2,29.6,63.7,44.5C1779.7,258.4,1785.4,276.6,1785.4,298.2z"/>
	<path class="st3" d="M1967.5,394.7c-29.8,0-53.1-10.8-70-32.4h-3.6c2.4,21.1,3.6,33.4,3.6,36.7v102.6h-69.1V136.9h56.2l9.7,32.9
		h3.2c16.2-25.1,40.1-37.6,71.8-37.6c29.9,0,53.3,11.6,70.2,34.7c16.9,23.1,25.4,55.2,25.4,96.3c0,27-4,50.5-11.9,70.5
		s-19.2,35.1-33.9,45.5C2004.5,389.5,1987.3,394.7,1967.5,394.7z M1947.1,187.4c-17.1,0-29.5,5.3-37.4,15.7
		c-7.9,10.5-11.9,27.8-12.2,52v7.5c0,27.2,4,46.7,12.1,58.5c8.1,11.8,20.9,17.7,38.4,17.7c31,0,46.4-25.5,46.4-76.6
		c0-24.9-3.8-43.6-11.4-56.1C1975.4,193.7,1963.4,187.4,1947.1,187.4z"/>
	<path class="st3" d="M2251.8,132.2c9.4,0,17.1,0.7,23.3,2l-5.2,64.8c-5.6-1.5-12.4-2.3-20.4-2.3c-22.1,0-39.2,5.7-51.5,17
		c-12.3,11.3-18.5,27.2-18.5,47.6v128.9h-69.1V136.9h52.3l10.2,42.6h3.4c7.9-14.2,18.5-25.6,31.8-34.3
		C2221.6,136.5,2236.1,132.2,2251.8,132.2z"/>
	<path class="st3" d="M2539.7,263.1c0,41.2-10.9,73.5-32.6,96.7c-21.8,23.3-52,34.9-90.9,34.9c-24.3,0-45.8-5.3-64.3-16
		s-32.9-25.9-42.8-45.9s-15-43.2-15-69.8c0-41.4,10.8-73.6,32.4-96.5c21.6-23,52-34.4,91.1-34.4c24.3,0,45.8,5.3,64.3,15.9
		c18.6,10.6,32.9,25.8,42.8,45.5C2534.7,213.3,2539.7,236.5,2539.7,263.1z M2364.6,263.1c0,25.1,4.1,44,12.3,56.9
		c8.2,12.8,21.6,19.3,40.2,19.3c18.4,0,31.7-6.4,39.8-19.1c8.1-12.8,12.1-31.8,12.1-57c0-25.1-4.1-43.9-12.2-56.4
		c-8.2-12.5-21.5-18.8-40.1-18.8c-18.4,0-31.7,6.2-39.9,18.7S2364.6,237.9,2364.6,263.1z"/>
	<path class="st3" d="M2764.7,390.2l-9.3-32.4h-3.6c-7.4,11.8-17.9,20.9-31.5,27.3s-29.1,9.6-46.4,9.6c-29.8,0-52.2-8-67.3-23.9
		c-15.1-15.9-22.7-38.9-22.7-68.8V136.9h69.1v147.9c0,18.3,3.2,32,9.7,41.1c6.5,9.1,16.8,13.7,31,13.7c19.3,0,33.3-6.5,41.9-19.4
		s12.9-34.3,12.9-64.2V136.9h69.1v253.3H2764.7z"/>
	<path class="st3" d="M2985.3,339.7c12.1,0,26.6-2.6,43.5-7.9v51.4c-17.2,7.7-38.4,11.6-63.4,11.6c-27.6,0-47.8-7-60.4-21
		c-12.6-14-18.9-34.9-18.9-62.9V188.8H2853v-29.2l38.1-23.1L2911,83h44.2v53.9h70.9v51.9h-70.9v122.1c0,9.8,2.8,17.1,8.3,21.8
		C2968.9,337.4,2976.2,339.7,2985.3,339.7z"/>
	<path class="st3" d="M3251.9,390.2h-69.1V59h189.9v57.5h-120.8v85.4h112.4v57.3h-112.4V390.2z"/>
	<path class="st3" d="M3599.8,390.2l-9.3-32.4h-3.6c-7.4,11.8-17.9,20.9-31.5,27.3s-29.1,9.6-46.4,9.6c-29.8,0-52.2-8-67.3-23.9
		c-15.1-15.9-22.7-38.9-22.7-68.8V136.9h69.1v147.9c0,18.3,3.2,32,9.7,41.1c6.5,9.1,16.8,13.7,31,13.7c19.3,0,33.3-6.5,41.9-19.4
		s12.9-34.3,12.9-64.2V136.9h69.1v253.3H3599.8z"/>
	<path class="st3" d="M3947.5,390.2h-69.1V242.3c0-18.3-3.3-32-9.7-41.1c-6.5-9.1-16.8-13.7-31-13.7c-19.3,0-33.3,6.5-41.9,19.4
		s-12.9,34.3-12.9,64.2v119.2h-69.1V136.9h52.8l9.3,32.4h3.9c7.7-12.2,18.3-21.5,31.8-27.8c13.5-6.3,28.9-9.4,46.1-9.4
		c29.5,0,51.8,8,67.1,23.9c15.3,15.9,22.9,38.9,22.9,69V390.2z"/>
	<path class="st3" d="M4087.3,394.7c-29.8,0-53.1-11.6-70.1-34.7s-25.5-55.1-25.5-96.1c0-41.5,8.6-73.9,25.9-97.1
		c17.3-23.2,41.1-34.8,71.5-34.8c31.9,0,56.2,12.4,73,37.2h2.3c-3.5-18.9-5.2-35.7-5.2-50.5V37.7h69.3v352.5h-53l-13.4-32.9h-2.9
		C4143.4,382.3,4119.5,394.7,4087.3,394.7z M4111.5,339.7c17.7,0,30.6-5.1,38.9-15.4c8.2-10.3,12.7-27.7,13.5-52.3v-7.5
		c0-27.2-4.2-46.7-12.6-58.5s-22-17.7-40.9-17.7c-15.4,0-27.4,6.5-35.9,19.6c-8.5,13.1-12.8,32.1-12.8,57s4.3,43.6,12.9,56.1
		S4095.5,339.7,4111.5,339.7z"/>
</g>
</svg>
